<svg width="46" height="38" viewBox="0 0 46 38" fill="none" xmlns="http://www.w3.org/2000/svg">
<g clip-path="url(#clip0_132_1413)">
<path d="M14.3462 8.20741L23 2.29395L31.6539 8.20741V17.5C31.6539 17.9481 31.4513 18.3778 31.0906 18.6947C30.73 19.0115 30.2408 19.1895 29.7308 19.1895H16.2693C15.7592 19.1895 15.2701 19.0115 14.9094 18.6947C14.5488 18.3778 14.3462 17.9481 14.3462 17.5V8.20741Z" stroke="#383564" stroke-width="2" stroke-linecap="round" stroke-linejoin="round"/>
<path d="M20.1154 19.19V10.7422H25.8846V19.19" stroke="#383564" stroke-width="2" stroke-linecap="round" stroke-linejoin="round"/>
</g>
<path d="M12.7965 30.9102V32.0762H8.26719V30.9102H12.7965ZM8.63047 27.3477V35.8789H7.15977V27.3477H8.63047ZM13.9273 27.3477V35.8789H12.4625V27.3477H13.9273ZM15.6691 32.7793V32.6445C15.6691 32.1875 15.7355 31.7637 15.8684 31.373C16.0012 30.9785 16.1926 30.6367 16.4426 30.3477C16.6965 30.0547 17.0051 29.8281 17.3684 29.668C17.7355 29.5039 18.1496 29.4219 18.6105 29.4219C19.0754 29.4219 19.4895 29.5039 19.8527 29.668C20.2199 29.8281 20.5305 30.0547 20.7844 30.3477C21.0383 30.6367 21.2316 30.9785 21.3645 31.373C21.4973 31.7637 21.5637 32.1875 21.5637 32.6445V32.7793C21.5637 33.2363 21.4973 33.6602 21.3645 34.0508C21.2316 34.4414 21.0383 34.7832 20.7844 35.0762C20.5305 35.3652 20.2219 35.5918 19.8586 35.7559C19.4953 35.916 19.0832 35.9961 18.6223 35.9961C18.1574 35.9961 17.7414 35.916 17.3742 35.7559C17.0109 35.5918 16.7023 35.3652 16.4484 35.0762C16.1945 34.7832 16.0012 34.4414 15.8684 34.0508C15.7355 33.6602 15.6691 33.2363 15.6691 32.7793ZM17.0812 32.6445V32.7793C17.0812 33.0645 17.1105 33.334 17.1691 33.5879C17.2277 33.8418 17.3195 34.0645 17.4445 34.2559C17.5695 34.4473 17.7297 34.5977 17.925 34.707C18.1203 34.8164 18.3527 34.8711 18.6223 34.8711C18.884 34.8711 19.1105 34.8164 19.302 34.707C19.4973 34.5977 19.6574 34.4473 19.7824 34.2559C19.9074 34.0645 19.9992 33.8418 20.0578 33.5879C20.1203 33.334 20.1516 33.0645 20.1516 32.7793V32.6445C20.1516 32.3633 20.1203 32.0977 20.0578 31.8477C19.9992 31.5938 19.9055 31.3691 19.7766 31.1738C19.6516 30.9785 19.4914 30.8262 19.2961 30.7168C19.1047 30.6035 18.8762 30.5469 18.6105 30.5469C18.3449 30.5469 18.1145 30.6035 17.9191 30.7168C17.7277 30.8262 17.5695 30.9785 17.4445 31.1738C17.3195 31.3691 17.2277 31.5938 17.1691 31.8477C17.1105 32.0977 17.0812 32.3633 17.0812 32.6445ZM24.5594 30.8281V35.8789H23.1473V29.5391H24.4773L24.5594 30.8281ZM24.3309 32.4746L23.8504 32.4688C23.8504 32.0312 23.9051 31.627 24.0145 31.2559C24.1238 30.8848 24.284 30.5625 24.4949 30.2891C24.7059 30.0117 24.9676 29.7988 25.2801 29.6504C25.5965 29.498 25.9617 29.4219 26.3758 29.4219C26.6648 29.4219 26.9285 29.4648 27.1668 29.5508C27.409 29.6328 27.618 29.7637 27.7937 29.9434C27.9734 30.123 28.1102 30.3535 28.2039 30.6348C28.3016 30.916 28.3504 31.2559 28.3504 31.6543V35.8789H26.9383V31.7773C26.9383 31.4688 26.8914 31.2266 26.7977 31.0508C26.7078 30.875 26.577 30.75 26.4051 30.6758C26.2371 30.5977 26.0359 30.5586 25.8016 30.5586C25.5359 30.5586 25.3094 30.6094 25.1219 30.7109C24.9383 30.8125 24.7879 30.9512 24.6707 31.127C24.5535 31.3027 24.4676 31.5059 24.4129 31.7363C24.3582 31.9668 24.3309 32.2129 24.3309 32.4746ZM28.2625 32.0996L27.6004 32.2461C27.6004 31.8633 27.6531 31.502 27.7586 31.1621C27.868 30.8184 28.0262 30.5176 28.2332 30.2598C28.4441 29.998 28.7039 29.793 29.0125 29.6445C29.3211 29.4961 29.6746 29.4219 30.073 29.4219C30.3973 29.4219 30.6863 29.4668 30.9402 29.5566C31.198 29.6426 31.4168 29.7793 31.5965 29.9668C31.7762 30.1543 31.9129 30.3984 32.0066 30.6992C32.1004 30.9961 32.1473 31.3555 32.1473 31.7773V35.8789H30.7293V31.7715C30.7293 31.4512 30.6824 31.2031 30.5887 31.0273C30.4988 30.8516 30.3699 30.7305 30.202 30.6641C30.034 30.5938 29.8328 30.5586 29.5984 30.5586C29.3797 30.5586 29.1863 30.5996 29.0184 30.6816C28.8543 30.7598 28.7156 30.8711 28.6023 31.0156C28.4891 31.1562 28.4031 31.3184 28.3445 31.502C28.2898 31.6855 28.2625 31.8848 28.2625 32.0996ZM36.7953 35.9961C36.3266 35.9961 35.9027 35.9199 35.5238 35.7676C35.1488 35.6113 34.8285 35.3945 34.5629 35.1172C34.3012 34.8398 34.1 34.5137 33.9594 34.1387C33.8188 33.7637 33.7484 33.3594 33.7484 32.9258V32.6914C33.7484 32.1953 33.8207 31.7461 33.9652 31.3438C34.1098 30.9414 34.3109 30.5977 34.5688 30.3125C34.8266 30.0234 35.1313 29.8027 35.4828 29.6504C35.8344 29.498 36.2152 29.4219 36.6254 29.4219C37.0785 29.4219 37.475 29.498 37.8148 29.6504C38.1547 29.8027 38.4359 30.0176 38.6586 30.2949C38.8852 30.5684 39.0531 30.8945 39.1625 31.2734C39.2758 31.6523 39.3324 32.0703 39.3324 32.5273V33.1309H34.434V32.1172H37.9379V32.0059C37.9301 31.752 37.8793 31.5137 37.7855 31.291C37.6957 31.0684 37.557 30.8887 37.3695 30.752C37.182 30.6152 36.932 30.5469 36.6195 30.5469C36.3852 30.5469 36.1762 30.5977 35.9926 30.6992C35.8129 30.7969 35.6625 30.9395 35.5414 31.127C35.4203 31.3145 35.3266 31.541 35.2602 31.8066C35.1977 32.0684 35.1664 32.3633 35.1664 32.6914V32.9258C35.1664 33.2031 35.2035 33.4609 35.2777 33.6992C35.3559 33.9336 35.4691 34.1387 35.6176 34.3145C35.766 34.4902 35.9457 34.6289 36.1566 34.7305C36.3676 34.8281 36.6078 34.877 36.8773 34.877C37.2172 34.877 37.5199 34.8086 37.7855 34.6719C38.0512 34.5352 38.2816 34.3418 38.477 34.0918L39.2211 34.8125C39.0844 35.0117 38.9066 35.2031 38.6879 35.3867C38.4691 35.5664 38.2016 35.7129 37.8852 35.8262C37.5727 35.9395 37.2094 35.9961 36.7953 35.9961Z" fill="#383564"/>
<defs>
<clipPath id="clip0_132_1413">
<rect width="23.0769" height="20.2747" fill="white" transform="translate(11.4615 0.604492)"/>
</clipPath>
</defs>
</svg>
