<?xml version="1.0" encoding="UTF-8"?>
<svg version="1.1" viewBox="0 0 2048 877" width="1280" height="1280" xmlns="http://www.w3.org/2000/svg">
<path transform="translate(0)" d="m0 0h2048v877h-2048z" fill="#FDFEFE"/>
<path transform="translate(324,233)" d="m0 0h21l17 4 15 6 15 8 13 10 12 11 10 10 13 17 10 14 13 22 14 25 11 19 45 78 14 24 15 26 16 28 15 26 16 28 15 26 9 15 5 10-1 7-5 12-8 18-15 40-8 24-10 36-9 38-7 39-5-2-12-14-15-20-20-30-12-19-11-19-12-21-14-26-12-22-24-47-10-19-24-48-10-19-17-32-12-23-6-9-2-1-2 11-10 35-17 61-14 52-23 85-19 71-14 53-3 5-3 1h-161l-26-1-1-2 9-31 17-56 41-136 36-120 29-97 17-60 11-29 10-20 11-18 11-14 11-12 11-9 16-10 15-6z" fill="#3A3765"/>
<path transform="translate(1270)" d="m0 0h75l37 5 34 6 24 6 35 10 31 11 29 12 24 11 32 16 39 22 19 12 25 16 28 20 21 16 14 11 11 9 28 24 26 24 17 16 39 39 7 8 7 7 7 8 9 10 9 11 14 17 9 11 11 13 13 17 10 13 14 19 11 17 7 12 1 5-7-6-14-15-9-11-28-30-9-10-15-15-7-8-15-15-8-7-11-11-8-7-13-12-8-7-13-11-11-9-15-13-14-11-13-10-9-7-13-10-14-10-8-6-22-15-19-12-21-13-29-16-26-13-24-11-20-8-30-11-25-8-37-9-28-5-17-2-39-2h-19l-36 2-33 5-33 8-24 8-25 10-26 12-23 13-21 13-17 12-12 9-14 11-15 13-8 7-16 15-19 19-7 8-9 10-9 11-12 14-11 14-11 15-13 18-4 6-7 10-10 15-11 18-9 14-11 19-13 23-12 23-10 19-11 22-13 28-8 18-12 28-12 29-11 28-18 49-17 50-14 44-16 54-4 15-6 17-3 1-60-1-76-2-3-1 12-40 12-41 19-59 15-43 10-28 14-37 18-45 13-31 26-58 9-19 10-19 8-16 13-25 10-18 8-14 10-17 11-18 14-22 12-18 11-16 13-18 20-26 9-11 11-13 9-11 13-14 7-8 9-9 5-6h2v-2h2l2-4 8-7 9-9 8-7 10-9 14-11 11-9 16-12 27-18 17-10 18-10 22-11 26-11 25-9 31-9 31-7z" fill="#FE1617"/>
<path transform="translate(1053,307)" d="m0 0 2 2 14 47 14 46 15 49 12 40 23 76 22 72 20 66 24 79 19 63 2 10-1 1h-160l-29-1-5-3-11-36-15-52-15-53-16-55-22-77-15-53-8-27 3-12 12-25 8-14 15-26 28-42 20-26 9-12 11-12 9-11 13-13z" fill="#3B3765"/>
<path transform="translate(2e3)" d="m0 0h53v877h-54v-798z"/>
<path transform="translate(0)" d="m0 0h52v877h-52z"/>
<path transform="translate(669,150)" d="m0 0h22l20 3 20 7 15 8 13 10 9 8 11 15 10 19 5 17 3 16v15l-3 18-7 20-11 18-8 10-9 9-12 9-14 8-15 6-11 3-25 3h-9l-20-3-18-6-17-9-12-9-11-10-11-14-8-14-7-19-3-14v-25l4-20 5-12 6-12 8-11 9-10 8-8 17-12 15-7 13-4z" fill="#FE1617"/>
</svg>
